<svg width="15" height="15" viewBox="0 0 15 15" fill="none" xmlns="http://www.w3.org/2000/svg">
<path d="M13.7363 13.7363L10.53 10.53M10.53 10.53C11.0447 10.0154 11.4529 9.40448 11.7314 8.7321C12.0099 8.05972 12.1532 7.33906 12.1532 6.61129C12.1532 5.88351 12.0099 5.16285 11.7314 4.49047C11.4529 3.81809 11.0447 3.20715 10.53 2.69254C10.0154 2.17792 9.40448 1.7697 8.7321 1.49119C8.05972 1.21268 7.33906 1.06934 6.61129 1.06934C5.88351 1.06934 5.16285 1.21268 4.49047 1.49119C3.81809 1.7697 3.20715 2.17792 2.69254 2.69254C1.65322 3.73185 1.06934 5.14147 1.06934 6.61129C1.06934 8.0811 1.65322 9.49072 2.69254 10.53C3.73185 11.5694 5.14147 12.1532 6.61129 12.1532C8.0811 12.1532 9.49072 11.5694 10.53 10.53Z" stroke="#1F1F1F" stroke-width="2.13828" stroke-linecap="round" stroke-linejoin="round"/>
</svg>
